<svg xmlns="http://www.w3.org/2000/svg" xmlns:xlink="http://www.w3.org/1999/xlink" width="500" zoomAndPan="magnify" viewBox="0 0 375 374.999991" height="500" preserveAspectRatio="xMidYMid meet" version="1.0"><defs><g/></defs><path fill="#270a11" d="M 57.394531 179.398438 L 77.828125 159.058594 C 78.355469 158.53125 78.929688 158.0625 79.550781 157.652344 C 80.171875 157.238281 80.824219 156.890625 81.515625 156.605469 C 82.203125 156.320312 82.914062 156.109375 83.644531 155.960938 C 84.378906 155.816406 85.117188 155.746094 85.863281 155.746094 C 86.609375 155.746094 87.347656 155.816406 88.078125 155.960938 C 88.8125 156.109375 89.519531 156.320312 90.210938 156.605469 C 90.898438 156.890625 91.554688 157.238281 92.175781 157.652344 C 92.796875 158.0625 93.367188 158.53125 93.898438 159.058594 L 114.328125 179.398438 C 114.855469 179.921875 115.328125 180.496094 115.742188 181.113281 C 116.15625 181.730469 116.507812 182.382812 116.792969 183.066406 C 117.078125 183.753906 117.292969 184.460938 117.4375 185.1875 C 117.585938 185.917969 117.65625 186.652344 117.65625 187.394531 C 117.65625 188.136719 117.585938 188.875 117.4375 189.601562 C 117.292969 190.332031 117.078125 191.039062 116.792969 191.722656 C 116.507812 192.410156 116.15625 193.0625 115.742188 193.679688 C 115.328125 194.296875 114.855469 194.867188 114.328125 195.394531 L 93.898438 215.734375 C 93.367188 216.257812 92.796875 216.726562 92.175781 217.140625 C 91.554688 217.554688 90.898438 217.902344 90.210938 218.1875 C 89.519531 218.46875 88.8125 218.683594 88.078125 218.828125 C 87.347656 218.972656 86.609375 219.046875 85.863281 219.046875 C 85.117188 219.046875 84.378906 218.972656 83.644531 218.828125 C 82.914062 218.683594 82.203125 218.46875 81.515625 218.1875 C 80.824219 217.902344 80.171875 217.554688 79.550781 217.140625 C 78.929688 216.726562 78.355469 216.257812 77.828125 215.734375 L 57.394531 195.394531 C 56.867188 194.867188 56.394531 194.296875 55.980469 193.679688 C 55.566406 193.0625 55.21875 192.410156 54.933594 191.722656 C 54.644531 191.039062 54.429688 190.332031 54.285156 189.601562 C 54.140625 188.875 54.066406 188.136719 54.066406 187.394531 C 54.066406 186.652344 54.140625 185.917969 54.285156 185.1875 C 54.429688 184.460938 54.644531 183.753906 54.933594 183.066406 C 55.21875 182.382812 55.566406 181.730469 55.980469 181.113281 C 56.394531 180.496094 56.867188 179.921875 57.394531 179.398438 Z M 57.394531 179.398438 " fill-opacity="1" fill-rule="nonzero"/><path fill="#d33852" d="M 93.898438 179.398438 L 114.328125 159.058594 C 114.859375 158.535156 115.429688 158.066406 116.050781 157.652344 C 116.671875 157.238281 117.328125 156.890625 118.015625 156.605469 C 118.707031 156.324219 119.414062 156.109375 120.148438 155.964844 C 120.878906 155.820312 121.617188 155.746094 122.363281 155.746094 C 123.109375 155.746094 123.847656 155.820312 124.582031 155.964844 C 125.3125 156.109375 126.023438 156.324219 126.710938 156.605469 C 127.402344 156.890625 128.058594 157.238281 128.675781 157.652344 C 129.296875 158.066406 129.871094 158.535156 130.398438 159.058594 L 150.832031 179.398438 C 151.359375 179.925781 151.832031 180.496094 152.246094 181.113281 C 152.660156 181.730469 153.007812 182.382812 153.292969 183.070312 C 153.582031 183.753906 153.796875 184.460938 153.941406 185.191406 C 154.085938 185.917969 154.160156 186.65625 154.160156 187.398438 C 154.160156 188.140625 154.085938 188.875 153.941406 189.605469 C 153.796875 190.332031 153.582031 191.039062 153.292969 191.726562 C 153.007812 192.410156 152.660156 193.0625 152.246094 193.679688 C 151.832031 194.296875 151.359375 194.871094 150.832031 195.394531 L 130.398438 215.734375 C 129.871094 216.261719 129.296875 216.730469 128.675781 217.140625 C 128.058594 217.554688 127.402344 217.902344 126.710938 218.1875 C 126.023438 218.472656 125.3125 218.683594 124.582031 218.832031 C 123.847656 218.976562 123.109375 219.046875 122.363281 219.046875 C 121.617188 219.046875 120.878906 218.976562 120.148438 218.832031 C 119.414062 218.683594 118.707031 218.472656 118.015625 218.1875 C 117.328125 217.902344 116.671875 217.554688 116.050781 217.140625 C 115.429688 216.730469 114.859375 216.261719 114.328125 215.734375 L 93.898438 195.394531 C 93.371094 194.871094 92.898438 194.296875 92.484375 193.679688 C 92.070312 193.0625 91.71875 192.410156 91.433594 191.726562 C 91.148438 191.039062 90.933594 190.332031 90.789062 189.605469 C 90.640625 188.875 90.570312 188.140625 90.570312 187.398438 C 90.570312 186.65625 90.640625 185.917969 90.789062 185.191406 C 90.933594 184.460938 91.148438 183.753906 91.433594 183.070312 C 91.71875 182.382812 92.070312 181.730469 92.484375 181.113281 C 92.898438 180.496094 93.371094 179.925781 93.898438 179.398438 Z M 93.898438 179.398438 " fill-opacity="1" fill-rule="nonzero"/><path fill="#d33852" d="M 104.113281 169.230469 L 93.902344 179.390625 C 93.375 179.917969 92.90625 180.488281 92.492188 181.105469 C 92.074219 181.722656 91.726562 182.375 91.441406 183.0625 C 91.15625 183.746094 90.941406 184.453125 90.792969 185.183594 C 90.648438 185.910156 90.574219 186.644531 90.574219 187.386719 C 90.574219 188.132812 90.648438 188.867188 90.792969 189.59375 C 90.941406 190.324219 91.15625 191.03125 91.441406 191.714844 C 91.726562 192.402344 92.074219 193.054688 92.492188 193.671875 C 92.90625 194.289062 93.375 194.859375 93.902344 195.386719 L 104.113281 205.546875 L 114.320312 195.386719 C 114.847656 194.859375 115.320312 194.289062 115.734375 193.671875 C 116.148438 193.054688 116.5 192.402344 116.785156 191.714844 C 117.070312 191.03125 117.285156 190.324219 117.429688 189.59375 C 117.574219 188.867188 117.648438 188.132812 117.648438 187.386719 C 117.648438 186.644531 117.574219 185.910156 117.429688 185.183594 C 117.285156 184.453125 117.070312 183.746094 116.785156 183.0625 C 116.5 182.375 116.148438 181.722656 115.734375 181.105469 C 115.320312 180.488281 114.847656 179.917969 114.320312 179.390625 Z M 104.113281 169.230469 " fill-opacity="1" fill-rule="nonzero"/><g fill="#000000" fill-opacity="1"><g transform="translate(164.66311, 178.273846)"><g><path d="M 10.375 -22.859375 L 1.945312 -22.859375 L 1.945312 0 L 10.375 0 C 16.46875 0 22.824219 -1.589844 22.824219 -11.445312 C 22.824219 -21.269531 16.46875 -22.859375 10.375 -22.859375 Z M 7.132812 -4.539062 L 7.132812 -18.320312 L 10.375 -18.320312 C 14.429688 -18.320312 17.636719 -17.996094 17.636719 -11.445312 C 17.636719 -4.863281 14.429688 -4.539062 10.375 -4.539062 Z M 7.132812 -4.539062 "/></g></g></g><g fill="#000000" fill-opacity="1"><g transform="translate(189.103374, 178.273846)"><g><path d="M 17.183594 -22.859375 L 1.621094 -22.859375 L 1.621094 -18.320312 L 6.808594 -18.320312 L 6.808594 -4.539062 L 1.621094 -4.539062 L 1.621094 0 L 17.183594 0 L 17.183594 -4.539062 L 11.996094 -4.539062 L 11.996094 -18.320312 L 17.183594 -18.320312 Z M 17.183594 -22.859375 "/></g></g></g><g fill="#000000" fill-opacity="1"><g transform="translate(207.903578, 178.273846)"><g><path d="M 1.621094 -11.445312 C 1.621094 -4.441406 5.382812 0.324219 12.222656 0.324219 C 18.511719 0.324219 21.335938 -4.28125 21.367188 -11.445312 L 22.664062 -11.445312 L 21.691406 -7.878906 L 21.691406 0 L 26.878906 0 L 26.878906 -9.984375 C 26.878906 -11.769531 25.90625 -12.742188 24.121094 -12.742188 L 12.191406 -12.742188 L 12.191406 -8.851562 L 17.476562 -8.851562 C 17.476562 -5.769531 15.53125 -4.214844 12.417969 -4.214844 C 8.65625 -4.214844 6.808594 -6.386719 6.808594 -11.445312 C 6.808594 -16.46875 9.144531 -18.644531 13.132812 -18.644531 C 16.566406 -18.644531 18.285156 -17.378906 18.804688 -14.6875 L 23.992188 -14.6875 C 23.3125 -19.679688 18.871094 -23.183594 13.132812 -23.183594 C 6.515625 -23.183594 1.621094 -18.414062 1.621094 -11.445312 Z M 1.621094 -11.445312 "/></g></g></g><g fill="#000000" fill-opacity="1"><g transform="translate(236.719742, 178.273846)"><g><path d="M 17.183594 -22.859375 L 1.621094 -22.859375 L 1.621094 -18.320312 L 6.808594 -18.320312 L 6.808594 -4.539062 L 1.621094 -4.539062 L 1.621094 0 L 17.183594 0 L 17.183594 -4.539062 L 11.996094 -4.539062 L 11.996094 -18.320312 L 17.183594 -18.320312 Z M 17.183594 -22.859375 "/></g></g></g><g fill="#000000" fill-opacity="1"><g transform="translate(255.519946, 178.273846)"><g><path d="M 0.972656 -22.859375 L 0.972656 -18.320312 L 8.460938 -18.320312 L 8.460938 0 L 13.648438 0 L 13.648438 -18.320312 L 21.105469 -18.320312 L 21.105469 -22.859375 Z M 0.972656 -22.859375 "/></g></g></g><g fill="#000000" fill-opacity="1"><g transform="translate(277.593972, 178.273846)"><g><path d="M 24.542969 0 L 16.792969 -22.859375 L 8.363281 -22.859375 L 0.648438 0 L 5.902344 0 L 7.78125 -5.707031 L 17.410156 -5.707031 L 19.292969 0 Z M 11.929688 -18.320312 L 13.226562 -18.320312 L 15.886719 -10.246094 L 9.273438 -10.246094 Z M 11.929688 -18.320312 "/></g></g></g><g fill="#000000" fill-opacity="1"><g transform="translate(302.779762, 178.273846)"><g><path d="M 18.253906 0 L 18.253906 -4.539062 L 7.132812 -4.214844 L 7.132812 -22.859375 L 1.945312 -22.859375 L 1.945312 -2.398438 C 1.945312 -0.617188 2.949219 0.355469 4.734375 0.324219 Z M 18.253906 0 "/></g></g></g><g fill="#000000" fill-opacity="1"><g transform="translate(192.752952, 210.523844)"><g><path d="M 5.382812 0 L 14.523438 0 L 18.285156 -18.320312 L 19.582031 -18.320312 L 23.34375 0 L 32.488281 0 L 37.222656 -22.859375 L 32.195312 -22.859375 L 28.5625 -4.539062 L 27.265625 -4.539062 L 23.636719 -22.859375 L 14.234375 -22.859375 L 10.601562 -4.539062 L 9.304688 -4.539062 L 5.675781 -22.859375 L 0.648438 -22.859375 Z M 5.382812 0 "/></g></g></g><g fill="#000000" fill-opacity="1"><g transform="translate(230.61266, 210.523844)"><g><path d="M 24.542969 0 L 16.792969 -22.859375 L 8.363281 -22.859375 L 0.648438 0 L 5.902344 0 L 7.78125 -5.707031 L 17.410156 -5.707031 L 19.292969 0 Z M 11.929688 -18.320312 L 13.226562 -18.320312 L 15.886719 -10.246094 L 9.273438 -10.246094 Z M 11.929688 -18.320312 "/></g></g></g><g fill="#000000" fill-opacity="1"><g transform="translate(255.79845, 210.523844)"><g><path d="M 18.253906 0 L 18.253906 -4.539062 L 7.132812 -4.214844 L 7.132812 -22.859375 L 1.945312 -22.859375 L 1.945312 -2.398438 C 1.945312 -0.617188 2.949219 0.355469 4.734375 0.324219 Z M 18.253906 0 "/></g></g></g><g fill="#000000" fill-opacity="1"><g transform="translate(274.695894, 210.523844)"><g><path d="M 18.253906 0 L 18.253906 -4.539062 L 7.132812 -4.214844 L 7.132812 -22.859375 L 1.945312 -22.859375 L 1.945312 -2.398438 C 1.945312 -0.617188 2.949219 0.355469 4.734375 0.324219 Z M 18.253906 0 "/></g></g></g></svg>